<svg width="41" height="45" viewBox="0 0 41 45" fill="none" xmlns="http://www.w3.org/2000/svg">
<path d="M15 38C5 41 5 33 1 32M29 44V36.26C29.075 35.3063 28.9462 34.3476 28.622 33.4476C28.2979 32.5476 27.7859 31.7268 27.12 31.04C33.4 30.34 40 27.96 40 17.04C39.9995 14.2477 38.9254 11.5624 37 9.54C37.9117 7.09701 37.8472 4.3967 36.82 2C36.82 2 34.46 1.3 29 4.96C24.416 3.71764 19.584 3.71764 15 4.96C9.54 1.3 7.18 2 7.18 2C6.15275 4.3967 6.08829 7.09701 7 9.54C5.06025 11.5774 3.98505 14.2869 4 17.1C4 27.94 10.6 30.32 16.88 31.1C16.222 31.7799 15.7145 32.5908 15.3906 33.4798C15.0667 34.3689 14.9336 35.3161 15 36.26V44" stroke="#000000" stroke-width="2" stroke-linecap="round" stroke-linejoin="round"/>
</svg>
